#!OML:ASF H:\Punching\Project 1\Capture day 1\Session 1\female.ASF
:FULLY-SPECIFIED
:DEGREES
3520
root -0.309928 14.5542 -1.34303 14.3122 -27.9699 -7.21105
lowerback -6.54494 0.305195 6.20204
upperback -8.58893 0.206581 2.39379
thorax -5.29856 -0.223471 -0.958291
lowerneck -9.95149 6.17388 11.7123
upperneck 34.7453 9.69591 -10.4052
head 14.8257 4.32847 -4.89415
rclavicle 8.15017e-015 -1.88845e-014
rhumerus 4.84082 25.9104 -67.0159
rradius 130.166
rwrist -13.2891
rhand -26.2786 4.81038
rfingers 7.12502
rthumb 0.276688 -25.1692
lclavicle 8.15017e-015 -1.88845e-014
lhumerus -1.61522 -15.2458 61.1578
lradius 136.466
lwrist -1.69622
lhand -21.6796 2.67776
lfingers 7.12502
lthumb 4.71813 32.6052
rfemur 0.329519 6.52928 21.2009
rtibia 24.8264
rfoot -32.1122 -29.3862
rtoes -7.1305
lfemur -48.1287 13.1674 -5.79582
ltibia 46.3093
lfoot -5.26305 11.5851
ltoes 8.02412
3521
root -0.312512 14.5546 -1.34391 14.3076 -27.9351 -7.20231
lowerback -6.48602 0.282787 6.14734
upperback -8.60708 0.184162 2.38875
thorax -5.35188 -0.233222 -0.93325
lowerneck -10.153 5.77972 11.2504
upperneck 34.5198 9.09045 -10.1937
head 14.6209 4.02455 -4.80751
rclavicle 5.26779e-015 -1.21259e-014
rhumerus 4.27471 26.067 -67.0014
rradius 130.066
rwrist -13.381
rhand -25.4671 4.01286
rfingers 7.12502
rthumb 1.06043 -25.9642
lclavicle 5.26779e-015 -1.21259e-014
lhumerus -2.38217 -15.4851 60.9231
lradius 136.155
lwrist -1.66413
lhand -20.3266 2.61979
lfingers 7.12502
lthumb 6.02447 32.5141
rfemur 0.330869 6.513 21.2169
rtibia 24.8353
rfoot -32.1211 -29.4045
rtoes -7.11209
lfemur -48.1243 13.1314 -5.78608
ltibia 46.2797
lfoot -5.24547 11.5919
ltoes 8.04635
3522
root -0.315258 14.5553 -1.34478 14.3002 -27.9024 -7.18767
lowerback -6.42532 0.258102 6.08006
upperback -8.61322 0.158709 2.38423
thorax -5.39321 -0.243117 -0.900869
lowerneck -10.3919 5.38246 10.789
upperneck 34.2919 8.48005 -9.97599
head 14.4311 3.71845 -4.7176
rclavicle 3.61291e-014 -8.94531e-015
rhumerus 3.6626 26.2439 -66.967
rradius 129.958
rwrist -13.4944
rhand -24.402 3.07752
rfingers 7.12502
rthumb 2.08908 -26.892
lclavicle 3.61291e-014 -8.94531e-015
lhumerus -3.23832 -15.9701 60.6835
lradius 135.9
lwrist -1.84747
lhand -19.2073 3.29074
lfingers 7.12502
lthumb 7.10505 33.1515
rfemur 0.332444 6.497 21.2276
rtibia 24.8445
rfoot -32.1294 -29.4246
rtoes -7.09608
lfemur -48.1138 13.0862 -5.77772
ltibia 46.2446
lfoot -5.22955 11.6083
ltoes 8.06705
3523
root -0.318167 14.5561 -1.34556 14.2895 -27.8715 -7.16596
lowerback -6.36363 0.23381 6.00678
upperback -8.62261 0.133902 2.3757
thorax -5.43845 -0.252603 -0.869233
lowerneck -10.6103 4.97777 10.3284
upperneck 34.0552 7.86038 -9.74466
head 14.2389 3.41089 -4.62287
rclavicle 2.80783e-014 2.50469e-014
rhumerus 2.95724 26.4585 -66.9408
rradius 129.834
rwrist -13.5941
rhand -23.0831 2.03346
rfingers 7.12502
rthumb 3.36288 -27.9198
lclavicle 2.80783e-014 2.50469e-014
lhumerus -4.20095 -16.6775 60.4649
lradius 135.673
lwrist -2.18314
lhand -18.281 4.45932
lfingers 7.12502
lthumb 7.99909 34.288
rfemur 0.335087 6.48075 21.232
rtibia 24.8526
rfoot -32.1361 -29.4473
rtoes -7.08467
lfemur -48.0968 13.032 -5.77251
ltibia 46.2051
lfoot -5.21741 11.6336
ltoes 8.09227
3524
root -0.321198 14.5571 -1.34623 14.2763 -27.8448 -7.14124
lowerback -6.29977 0.210465 5.93001
upperback -8.63012 0.11034 2.36425
thorax -5.48271 -0.261249 -0.838658
lowerneck -10.8044 4.5677 9.86181
upperneck 33.7939 7.23408 -9.49558
head 14.0365 3.10278 -4.51922
rclavicle -9.32052e-014 1.39149e-015
rhumerus 2.16859 26.714 -66.9163
rradius 129.687
rwrist -13.6696
rhand -21.6017 0.97122
rfingers 7.12502
rthumb 4.79334 -28.9546
lclavicle -9.32052e-014 1.39149e-015
lhumerus -5.2704 -17.6009 60.279
lradius 135.464
lwrist -2.66475
lhand -17.5656 6.06106
lfingers 7.12502
lthumb 8.68952 35.8622
rfemur 0.339204 6.46955 21.2338
rtibia 24.8592
rfoot -32.1393 -29.4756
rtoes -7.07899
lfemur -48.0725 12.9711 -5.7657
ltibia 46.1618
lfoot -5.20762 11.6673
ltoes 8.10468
3525
root -0.324348 14.5583 -1.34675 14.2626 -27.8201 -7.11499
lowerback -6.2339 0.185435 5.84891
upperback -8.63743 0.084681 2.35376
thorax -5.52794 -0.270637 -0.804642
lowerneck -10.9808 4.15888 9.39828
upperneck 33.5179 6.61127 -9.23529
head 13.8328 2.79865 -4.41002
rclavicle 1.2424e-016 -2.74323e-014
rhumerus 1.29897 27.0326 -66.8942
rradius 129.509
rwrist -13.7072
rhand -20.0318 -0.0260961
rfingers 7.12502
rthumb 6.3091 -29.9121
lclavicle 1.2424e-016 -2.74323e-014
lhumerus -6.44567 -18.6745 60.1466
lradius 135.239
lwrist -3.20493
lhand -16.9828 7.82679
lfingers 7.12502
lthumb 9.25197 37.6038
rfemur 0.344811 6.46234 21.2347
rtibia 24.8637
rfoot -32.147 -29.5033
rtoes -7.06514
lfemur -48.0435 12.903 -5.75638
ltibia 46.1158
lfoot -5.20091 11.7085
ltoes 8.11318
3526
root -0.327608 14.5597 -1.34712 14.2481 -27.7974 -7.0867
lowerback -6.1654 0.157572 5.76307
upperback -8.64427 0.0554466 2.34496
thorax -5.57424 -0.28145 -0.766219
lowerneck -11.1328 3.74958 8.927
upperneck 33.2206 5.99036 -8.95868
head 13.6224 2.49716 -4.29139
rclavicle 2.00027e-014 -4.77083e-015
rhumerus 0.352142 27.4246 -66.8745
rradius 129.296
rwrist -13.7073
rhand -18.4161 -0.929037
rfingers 7.12502
rthumb 7.86871 -30.7626
lclavicle 2.00027e-014 -4.77083e-015
lhumerus -7.69928 -19.7795 60.0673
lradius 134.918
lwrist -3.6573
lhand -16.4545 9.2399
lfingers 7.12502
lthumb 9.76167 38.9937
rfemur 0.351711 6.45539 21.2336
rtibia 24.8659
rfoot -32.1527 -29.5319
rtoes -7.05149
lfemur -48.01 12.827 -5.7446
ltibia 46.0676
lfoot -5.19709 11.7575
ltoes 8.12683
3527
root -0.330993 14.5612 -1.34744 14.2347 -27.7782 -7.0571
lowerback -6.09672 0.129899 5.67382
upperback -8.64658 0.0261753 2.33412
thorax -5.61566 -0.291895 -0.72803
lowerneck -11.273 3.341 8.45863
upperneck 32.9036 5.37066 -8.66851
head 13.4099 2.19877 -4.16672
rclavicle -3.24019e-014 -4.96962e-015
rhumerus -0.666106 27.8887 -66.8629
rradius 129.047
rwrist -13.6715
rhand -16.8151 -1.70491
rfingers 7.12502
rthumb 9.41376 -31.4747
lclavicle -3.24019e-014 -4.96962e-015
lhumerus -8.99719 -20.8354 60.0322
lradius 134.462
lwrist -3.9222
lhand -15.914 10.0312
lfingers 7.12502
lthumb 10.2831 39.7598
rfemur 0.356917 6.45342 21.2315
rtibia 24.8669
rfoot -32.1595 -29.5614
rtoes -7.03022
lfemur -47.9738 12.7451 -5.72977
ltibia 46.0169
lfoot -5.19576 11.8143
ltoes 8.14153
